<svg xmlns="http://www.w3.org/2000/svg" width="1600" height="900" viewBox="0 0 1600 900"><rect width="100%" height="100%" fill="#DDDDDD"/><path fill="#999999" d="M377.7 400.13h13.28v80.98h-7.73q-1.79 0-3-.59-1.2-.59-2.32-1.99l-42.28-53.98q.33 3.7.33 6.83v49.73h-13.27v-80.98h7.9q.95 0 1.65.09.7.08 1.23.33.53.26 1.04.73.5.48 1.12 1.26l42.45 54.21q-.17-1.96-.28-3.86-.12-1.91-.12-3.53zm40.04 45.64h26.1q0-2.68-.76-5.06-.75-2.38-2.26-4.18-1.52-1.79-3.84-2.82-2.32-1.04-5.4-1.04-6 0-9.44 3.42-3.44 3.41-4.4 9.68m35.28 8.35h-35.56q.34 4.42 1.57 7.64t3.25 5.32 4.79 3.14q2.77 1.03 6.13 1.03t5.8-.78q2.43-.78 4.25-1.74 1.82-.95 3.19-1.73 1.38-.79 2.66-.79 1.74 0 2.58 1.29l3.98 5.04q-2.3 2.69-5.16 4.51-2.85 1.82-5.96 2.91t-6.33 1.54-6.24.45q-5.99 0-11.15-1.99-5.15-1.99-8.96-5.88-3.8-3.89-5.99-9.63-2.18-5.74-2.18-13.3 0-5.88 1.9-11.06 1.91-5.18 5.46-9.02 3.56-3.83 8.68-6.07 5.13-2.24 11.57-2.24 5.43 0 10.02 1.73 4.59 1.74 7.9 5.07 3.3 3.33 5.18 8.18 1.87 4.84 1.87 11.06 0 3.13-.67 4.23-.67 1.09-2.58 1.09m85.12-30.47h10.53l-18.25 57.46h-11.09q-1.91 0-2.63-2.46l-10.31-33.21q-.5-1.68-.92-3.33-.42-1.66-.7-3.34-.34 1.68-.76 3.39t-.92 3.39l-10.47 33.1q-.68 2.46-2.97 2.46h-10.64l-18.2-57.46h11.03q1.51 0 2.58.73 1.06.73 1.4 1.85l8.23 30.69q.61 2.52 1.09 4.93.48 2.4.81 4.81.62-2.41 1.32-4.81.7-2.41 1.48-4.93l9.52-30.8q.34-1.12 1.32-1.85t2.38-.73h6.1q1.46 0 2.49.73 1.04.73 1.38 1.85l9.24 30.8q.72 2.52 1.37 4.95.64 2.44 1.26 4.85.73-4.76 2.07-9.8l8.46-30.69q.39-1.12 1.4-1.85 1-.73 2.4-.73m37.52 58.36q-7.5 0-11.5-4.23-4.01-4.23-4.01-11.68v-32.09h-5.88q-1.12 0-1.9-.72-.79-.73-.79-2.19v-5.49l9.24-1.51 2.92-15.68q.28-1.12 1.06-1.73.78-.62 2.02-.62h7.16v18.09h15.35v9.85h-15.35v31.14q0 2.69 1.32 4.2t3.61 1.51q1.29 0 2.16-.31.87-.3 1.51-.64t1.15-.64q.5-.31 1.01-.31.61 0 1 .31.4.3.84.92l4.15 6.72q-3.03 2.52-6.95 3.81t-8.12 1.29m47.94-59.25q6.38 0 11.62 2.07t8.96 5.88 5.74 9.3q2.02 5.48 2.02 12.26 0 6.83-2.02 12.32t-5.74 9.35q-3.72 3.87-8.96 5.94t-11.62 2.07q-6.44 0-11.7-2.07-5.27-2.07-8.99-5.94-3.73-3.86-5.77-9.35t-2.04-12.32q0-6.78 2.04-12.26 2.04-5.49 5.77-9.3 3.72-3.81 8.99-5.88 5.26-2.07 11.7-2.07m0 48.55q7.17 0 10.61-4.82 3.45-4.81 3.45-14.11 0-9.29-3.45-14.17-3.44-4.87-10.61-4.87-7.28 0-10.78 4.9t-3.5 14.14 3.5 14.09q3.5 4.84 10.78 4.84m110.43-47.66h10.53l-18.26 57.46h-11.08q-1.91 0-2.64-2.46l-10.3-33.21q-.5-1.68-.92-3.33-.42-1.66-.7-3.34-.34 1.68-.76 3.39t-.92 3.39l-10.48 33.1q-.67 2.46-2.96 2.46H674.9l-18.2-57.46h11.03q1.51 0 2.57.73 1.07.73 1.4 1.85l8.24 30.69q.61 2.52 1.09 4.93.47 2.4.81 4.81.62-2.41 1.32-4.81.7-2.41 1.48-4.93l9.52-30.8q.34-1.12 1.32-1.85t2.38-.73h6.1q1.46 0 2.49.73 1.04.73 1.37 1.85l9.24 30.8q.73 2.52 1.38 4.95.64 2.44 1.26 4.85.72-4.76 2.07-9.8l8.45-30.69q.4-1.12 1.4-1.85 1.01-.73 2.41-.73m30.35 2.52.96 4.54q1.73-1.74 3.66-3.22 1.94-1.48 4.09-2.52 2.16-1.04 4.62-1.62 2.47-.59 5.38-.59 4.7 0 8.34 1.59 3.64 1.6 6.08 4.48 2.43 2.89 3.69 6.89 1.26 4.01 1.26 8.82v36.57h-13.83v-36.57q0-5.26-2.41-8.15-2.4-2.88-7.33-2.88-3.59 0-6.72 1.62-3.14 1.63-5.94 4.43v41.55H752.4v-57.46h8.46q2.68 0 3.52 2.52m95.65 14.68h11.26q4.14 0 7.22-1.04t5.13-2.97q2.04-1.93 3.05-4.7t1.01-6.19q0-3.25-1.01-5.88t-3.03-4.48q-2.01-1.85-5.09-2.83t-7.28-.98h-11.26zm-15.06-40.72h26.32q8.12 0 14.05 1.91 5.94 1.9 9.8 5.32 3.87 3.41 5.74 8.17 1.88 4.76 1.88 10.42 0 5.88-1.96 10.78t-5.88 8.43-9.83 5.49-13.8 1.96h-11.26v28.5h-15.06zm79.35 27 .84 6.49q2.69-5.15 6.38-8.09 3.7-2.94 8.74-2.94 3.98 0 6.38 1.74l-.89 10.36q-.28 1-.81 1.42-.54.42-1.43.42-.84 0-2.49-.28-1.66-.28-3.22-.28-2.3 0-4.09.68-1.79.67-3.22 1.93t-2.52 3.05-2.05 4.09v35.39h-13.83v-57.46h8.12q2.13 0 2.97.76t1.12 2.72m54.99-4.37q6.39 0 11.62 2.07 5.24 2.07 8.96 5.88 3.73 3.81 5.74 9.3 2.02 5.48 2.02 12.26 0 6.83-2.02 12.32-2.01 5.49-5.74 9.35-3.72 3.87-8.96 5.94-5.23 2.07-11.62 2.07-6.44 0-11.7-2.07-5.27-2.07-8.99-5.94-3.72-3.86-5.77-9.35-2.04-5.49-2.04-12.32 0-6.78 2.04-12.26 2.05-5.49 5.77-9.3t8.99-5.88q5.26-2.07 11.7-2.07m0 48.55q7.17 0 10.61-4.82 3.45-4.81 3.45-14.11 0-9.29-3.45-14.17-3.44-4.87-10.61-4.87-7.28 0-10.78 4.9t-3.5 14.14 3.5 14.09q3.5 4.84 10.78 4.84m52.75-30.86v25.76q2.36 2.86 5.13 4.04 2.77 1.17 6.02 1.17 3.13 0 5.65-1.17 2.52-1.18 4.29-3.59 1.76-2.41 2.71-6.07.96-3.67.96-8.66 0-5.04-.82-8.54-.81-3.5-2.32-5.68t-3.67-3.19q-2.15-1.01-4.9-1.01-4.31 0-7.33 1.82-3.03 1.82-5.72 5.12m-1.84-14.28 1.12 5.32q3.52-3.97 8-6.44 4.48-2.46 10.53-2.46 4.71 0 8.6 1.96t6.72 5.68q2.83 3.73 4.37 9.19t1.54 12.51q0 6.44-1.74 11.93t-4.96 9.52-7.78 6.3-10.22 2.27q-4.82 0-8.23-1.48-3.42-1.49-6.11-4.12v23.52h-13.83v-76.22h8.46q2.69 0 3.53 2.52m62.55 19.6h26.09q0-2.68-.75-5.06-.76-2.38-2.27-4.18-1.51-1.79-3.84-2.82-2.32-1.04-5.4-1.04-5.99 0-9.44 3.42-3.44 3.41-4.39 9.68m35.28 8.35h-35.56q.33 4.42 1.57 7.64 1.23 3.22 3.24 5.32 2.02 2.1 4.79 3.14 2.77 1.03 6.13 1.03t5.8-.78 4.26-1.74q1.82-.95 3.19-1.73 1.37-.79 2.66-.79 1.73 0 2.57 1.29l3.98 5.04q-2.3 2.69-5.15 4.51-2.86 1.82-5.97 2.91-3.1 1.09-6.32 1.54t-6.25.45q-5.99 0-11.14-1.99t-8.96-5.88-5.99-9.63q-2.19-5.74-2.19-13.3 0-5.88 1.91-11.06 1.9-5.18 5.46-9.02 3.55-3.83 8.68-6.07 5.12-2.24 11.56-2.24 5.43 0 10.02 1.73 4.6 1.74 7.9 5.07t5.18 8.18q1.88 4.84 1.88 11.06 0 3.13-.68 4.23-.67 1.09-2.57 1.09m25.81-26.99.84 6.49q2.69-5.15 6.39-8.09 3.69-2.94 8.73-2.94 3.98 0 6.39 1.74l-.9 10.36q-.28 1-.81 1.42t-1.43.42q-.84 0-2.49-.28t-3.22-.28q-2.3 0-4.09.68-1.79.67-3.22 1.93t-2.52 3.05-2.04 4.09v35.39h-13.83v-57.46h8.12q2.12 0 2.96.76t1.12 2.72m48.72 54.88q-7.5 0-11.5-4.23-4.01-4.23-4.01-11.68v-32.09h-5.88q-1.12 0-1.9-.72-.79-.73-.79-2.19v-5.49l9.24-1.51 2.92-15.68q.28-1.12 1.06-1.73.78-.62 2.02-.62h7.16v18.09h15.35v9.85h-15.35v31.14q0 2.69 1.32 4.2t3.61 1.51q1.29 0 2.16-.31.87-.3 1.51-.64t1.15-.64q.5-.31 1.01-.31.61 0 1 .31.4.3.84.92l4.15 6.72q-3.03 2.52-6.95 3.81t-8.12 1.29m63.62-58.36h11.09l-31.31 73.25q-.61 1.46-1.59 2.21-.98.76-3 .76h-10.3l10.75-23.07-23.24-53.15h12.15q1.63 0 2.55.79.92.78 1.37 1.79l12.21 29.79q.62 1.51 1.04 3.03.42 1.51.81 3.08.5-1.57 1.01-3.11.5-1.54 1.12-3.05l11.53-29.74q.45-1.12 1.49-1.85 1.03-.73 2.32-.73"/></svg>